<svg width="16" height="16" viewBox="0 0 16 16" fill="none" xmlns="http://www.w3.org/2000/svg">
<g clip-path="url(#clip0_824_4300)">
<path d="M12.4219 13.0525H3.57977V13.6841C3.57977 13.8516 3.51323 14.0123 3.39478 14.1307C3.27634 14.2491 3.1157 14.3157 2.94819 14.3157H2.31661C2.14911 14.3157 1.98846 14.2491 1.87002 14.1307C1.75157 14.0123 1.68503 13.8516 1.68503 13.6841V8.94727L0.89998 8.75148C0.763404 8.71726 0.642175 8.63839 0.555552 8.5274C0.468929 8.4164 0.421879 8.27964 0.421875 8.13885L0.421875 7.68411C0.421875 7.60036 0.455146 7.52003 0.514368 7.46081C0.57359 7.40159 0.653912 7.36832 0.737664 7.36832H1.68503L3.25135 3.71274C3.34882 3.48537 3.5109 3.29163 3.71749 3.15555C3.92408 3.01947 4.16608 2.94705 4.41345 2.94727H11.5882C11.8354 2.94729 12.0771 3.01983 12.2834 3.1559C12.4898 3.29196 12.6517 3.48557 12.749 3.71274L14.3166 7.36832H15.264C15.3477 7.36832 15.4281 7.40159 15.4873 7.46081C15.5465 7.52003 15.5798 7.60036 15.5798 7.68411V8.13885C15.5798 8.27964 15.5327 8.4164 15.4461 8.5274C15.3595 8.63839 15.2382 8.71726 15.1017 8.75148L14.3166 8.94727V13.6841C14.3166 13.8516 14.2501 14.0123 14.1316 14.1307C14.0132 14.2491 13.8525 14.3157 13.685 14.3157H13.0535C12.8859 14.3157 12.7253 14.2491 12.6069 14.1307C12.4884 14.0123 12.4219 13.8516 12.4219 13.6841V13.0525ZM13.0535 11.7894V8.63148H2.94819V11.7894H13.0535ZM3.88103 7.36832H12.1206C12.2238 7.36825 12.3253 7.34292 12.4164 7.29454C12.5075 7.24615 12.5854 7.17619 12.6432 7.09077C12.7011 7.00534 12.7371 6.90705 12.7481 6.80449C12.7592 6.70193 12.745 6.59822 12.7067 6.50242L11.7903 4.21042H4.21135L3.29493 6.50242C3.25666 6.59822 3.24243 6.70193 3.2535 6.80449C3.26456 6.90705 3.30058 7.00534 3.35841 7.09077C3.41623 7.17619 3.4941 7.24615 3.5852 7.29454C3.67631 7.34292 3.77788 7.36825 3.88103 7.36832ZM3.57977 9.26306C5.04314 9.26306 6.02966 9.7399 6.53935 10.693C6.56511 10.7411 6.57796 10.7951 6.57665 10.8496C6.57533 10.9042 6.55989 10.9575 6.53183 11.0043C6.50378 11.0511 6.46406 11.0899 6.41657 11.1168C6.36907 11.1437 6.31541 11.1578 6.26082 11.1578H4.21135C4.04384 11.1578 3.8832 11.0913 3.76476 10.9728C3.64631 10.8544 3.57977 10.6937 3.57977 10.5262V9.26306ZM12.4219 9.26306V10.5262C12.4219 10.6937 12.3553 10.8544 12.2369 10.9728C12.1184 11.0913 11.9578 11.1578 11.7903 11.1578H9.74082C9.68629 11.1577 9.63271 11.1435 9.5853 11.1166C9.53789 11.0896 9.49826 11.0508 9.47028 11.004C9.4423 10.9572 9.42691 10.904 9.42563 10.8495C9.42434 10.7949 9.43719 10.741 9.46293 10.693C9.97135 9.73927 10.9579 9.26306 12.4219 9.26306Z" fill="#1F77FC"/>
</g>
<defs>
<clipPath id="clip0_824_4300">
<rect width="15.1579" height="15.1579" fill="white" transform="translate(0.421875 0.420898)"/>
</clipPath>
</defs>
</svg>
