<svg width="19" height="19" viewBox="0 0 19 19" fill="none" xmlns="http://www.w3.org/2000/svg">
<path d="M15.0417 7.91634H15.8333C16.0433 7.91634 16.2447 7.99975 16.3931 8.14822C16.5416 8.29668 16.625 8.49805 16.625 8.70801V16.6247C16.625 16.8346 16.5416 17.036 16.3931 17.1845C16.2447 17.3329 16.0433 17.4163 15.8333 17.4163H3.16667C2.9567 17.4163 2.75534 17.3329 2.60687 17.1845C2.45841 17.036 2.375 16.8346 2.375 16.6247V8.70801C2.375 8.49805 2.45841 8.29668 2.60687 8.14822C2.75534 7.99975 2.9567 7.91634 3.16667 7.91634H3.95833V7.12467C3.95833 6.39693 4.10167 5.67632 4.38017 5.00397C4.65866 4.33162 5.06686 3.72072 5.58145 3.20612C6.09604 2.69153 6.70695 2.28334 7.3793 2.00484C8.05164 1.72635 8.77226 1.58301 9.5 1.58301C10.2277 1.58301 10.9484 1.72635 11.6207 2.00484C12.2931 2.28334 12.904 2.69153 13.4186 3.20612C13.9331 3.72072 14.3413 4.33162 14.6198 5.00397C14.8983 5.67632 15.0417 6.39693 15.0417 7.12467V7.91634ZM3.95833 9.49968V15.833H15.0417V9.49968H3.95833ZM8.70833 11.083H10.2917V14.2497H8.70833V11.083ZM13.4583 7.91634V7.12467C13.4583 6.07486 13.0413 5.06804 12.299 4.32571C11.5566 3.58338 10.5498 3.16634 9.5 3.16634C8.45018 3.16634 7.44337 3.58338 6.70104 4.32571C5.9587 5.06804 5.54167 6.07486 5.54167 7.12467V7.91634H13.4583Z" fill="#9D9D9D"/>
</svg>
