<svg width="16" height="16" viewBox="0 0 16 16" fill="none" xmlns="http://www.w3.org/2000/svg">
<path d="M8 9.2646C8.69763 9.2646 9.26316 8.69906 9.26316 8.00144C9.26316 7.30382 8.69763 6.73828 8 6.73828C7.30238 6.73828 6.73685 7.30382 6.73685 8.00144C6.73685 8.69906 7.30238 9.2646 8 9.2646Z" fill="#3F8EEC"/>
<path d="M12.4211 9.2646C13.1187 9.2646 13.6842 8.69906 13.6842 8.00144C13.6842 7.30382 13.1187 6.73828 12.4211 6.73828C11.7234 6.73828 11.1579 7.30382 11.1579 8.00144C11.1579 8.69906 11.7234 9.2646 12.4211 9.2646Z" fill="#3F8EEC"/>
<path d="M3.57895 9.2646C4.27658 9.2646 4.84211 8.69906 4.84211 8.00144C4.84211 7.30382 4.27658 6.73828 3.57895 6.73828C2.88133 6.73828 2.3158 7.30382 2.3158 8.00144C2.3158 8.69906 2.88133 9.2646 3.57895 9.2646Z" fill="#3F8EEC"/>
</svg>
